<svg width="24" height="24" viewBox="0 0 24 24" fill="none" xmlns="http://www.w3.org/2000/svg">
<path d="M19.8517 10.9285L17.0849 9.49225C14.9584 8.38769 13.2657 6.34667 12.3584 3.78789L11.3061 0.825413C11.111 0.274637 10.6888 0 10.2666 0C9.84437 0 9.42216 0.274637 9.22709 0.825413L8.17605 3.78789C7.26746 6.34517 5.57604 8.38769 3.44829 9.49225L0.681445 10.9285C-0.227148 11.3997 -0.227148 12.9455 0.681445 13.4167L3.53812 14.8995C5.61197 15.9755 7.27388 17.9445 8.19787 20.4192L9.23608 23.1986C9.43499 23.7329 9.85079 24 10.2666 24C10.6824 24 11.0982 23.7329 11.2984 23.1986L12.3366 20.4192C13.2606 17.946 14.9225 15.9755 16.9963 14.8995L19.853 13.4167C20.7603 12.9455 20.7603 11.3997 19.8517 10.9285ZM10.2666 18.5133C9.04871 15.6888 7.06213 13.4557 4.6097 12.1726C7.08779 10.8459 9.0731 8.55728 10.2666 5.66683C11.4601 8.55728 13.4454 10.8459 15.9235 12.1711C13.471 13.4542 11.4845 15.6888 10.2666 18.5133Z" fill="white"/>
<path d="M23.7699 19.5862L22.8356 19.1013C22.1176 18.7283 21.546 18.0391 21.2396 17.1751L20.8843 16.1748C20.8185 15.9888 20.6759 15.8961 20.5333 15.8961C20.3908 15.8961 20.2482 15.9888 20.1823 16.1748L19.8274 17.1751C19.5206 18.0386 18.9495 18.7283 18.231 19.1013L17.2968 19.5862C16.99 19.7454 16.99 20.2673 17.2968 20.4264L18.2614 20.9271C18.9616 21.2904 19.5228 21.9553 19.8348 22.7909L20.1854 23.7294C20.2525 23.9098 20.3929 24 20.5333 24C20.6737 24 20.8141 23.9098 20.8817 23.7294L21.2323 22.7909C21.5443 21.9558 22.1054 21.2904 22.8057 20.9271L23.7703 20.4264C24.0767 20.2673 24.0767 19.7454 23.7699 19.5862ZM20.5333 22.1473C20.1221 21.1936 19.4513 20.4396 18.6232 20.0063C19.46 19.5584 20.1303 18.7856 20.5333 17.8096C20.9363 18.7856 21.6067 19.5584 22.4434 20.0058C21.6153 20.4391 20.9446 21.1936 20.5333 22.1473Z" fill="white"/>
</svg>
