<svg width="24" height="25" viewBox="0 0 24 25" fill="none" xmlns="http://www.w3.org/2000/svg">
<path d="M24 16.0556V23.6111C24 24.3889 23.386 25 22.6047 25H1.39535C0.613954 25 0 24.3889 0 23.6111V16.0556C0 15.2778 0.613954 14.6667 1.39535 14.6667C2.17674 14.6667 2.7907 15.2778 2.7907 16.0556V22.2222H21.2093V16.0556C21.2093 15.2778 21.8233 14.6667 22.6047 14.6667C23.386 14.6667 24 15.2778 24 16.0556ZM10.9953 17.7778C11.2465 18.0556 11.6093 18.1944 12 18.1944C12.3907 18.1944 12.7256 18.0556 13.0047 17.7778L18.5581 12.1111C19.0884 11.5556 19.0884 10.6944 18.5302 10.1389C17.9721 9.61111 17.107 9.61111 16.5488 10.1667L13.3953 13.4167V1.38889C13.3953 0.611111 12.7814 0 12 0C11.2186 0 10.6047 0.611111 10.6047 1.38889V13.4167L7.42326 10.1944C6.89302 9.63889 6 9.63889 5.44186 10.1667C4.88372 10.6944 4.88372 11.5833 5.41395 12.1389L10.9953 17.7778Z" fill="white"/>
</svg>
