<svg width="18" height="18" viewBox="0 0 18 18" fill="none" xmlns="http://www.w3.org/2000/svg">
<path d="M0 13C0 15.8 2.2 18 5 18H13C15.7 18 17.9 15.8 18 13.1V5C18 2.2 15.8 0 13 0H5C2.2 0 0 2.2 0 5V13ZM13 16H5C3.3 16 2 14.7 2 13V12.6L6.5 10C7.4 9.5 8.6 9.5 9.5 10L15.9 13.6C15.7 14.9 14.5 16 13 16ZM5 2H13C14.7 2 16 3.3 16 5V11.3L10.5 8.2C9 7.3 7.1 7.4 5.5 8.2L2 10.2V5C2 3.3 3.3 2 5 2Z" fill="white"/>
<path d="M12.5 7C13.3284 7 14 6.32843 14 5.5C14 4.67157 13.3284 4 12.5 4C11.6716 4 11 4.67157 11 5.5C11 6.32843 11.6716 7 12.5 7Z" fill="white"/>
</svg>
