<svg width="22" height="10" viewBox="0 0 22 10" fill="none" xmlns="http://www.w3.org/2000/svg">
<path d="M11.3929 0C12.0371 0 12.5714 0.566667 12.5714 1.25V8.75C12.5714 9.43333 12.0371 10 11.3929 10C10.7486 10 10.2143 9.43333 10.2143 8.75V1.25C10.2143 0.566667 10.7486 0 11.3929 0ZM7.85714 1.25C7.85714 0.566667 7.32286 0 6.67857 0H1.57143C0.628571 0 0 0.833333 0 1.66667V8.33333C0 9.16667 0.628571 10 1.57143 10H6.28571C7.22857 10 7.85714 9.16667 7.85714 8.33333V6.25C7.85714 5.56667 7.32286 5 6.67857 5C6.03429 5 5.5 5.56667 5.5 6.25V7.5H2.35714V2.5H6.67857C7.32286 2.5 7.85714 1.93333 7.85714 1.25ZM22 1.25C22 0.566667 21.4657 0 20.8214 0H16.5C15.6357 0 14.9286 0.75 14.9286 1.66667V8.75C14.9286 9.43333 15.4629 10 16.1071 10C16.7514 10 17.2857 9.43333 17.2857 8.75V6.66667H19.25C19.8943 6.66667 20.4286 6.1 20.4286 5.41667C20.4286 4.73333 19.8943 4.16667 19.25 4.16667H17.2857V2.5H20.8214C21.4657 2.5 22 1.93333 22 1.25Z" fill="white"/>
</svg>
