<svg width="22" height="22" viewBox="0 0 22 22" fill="none" xmlns="http://www.w3.org/2000/svg">
<path fill-rule="evenodd" clip-rule="evenodd" d="M0 6C0 4.4087 0.632141 2.88258 1.75736 1.75736C2.88258 0.632141 4.4087 0 6 0H13C13.2652 5.66374e-05 13.5195 0.105451 13.707 0.293L21.707 8.293C21.8946 8.48049 21.9999 8.73481 22 9V16C22 17.5913 21.3679 19.1174 20.2426 20.2426C19.1174 21.3679 17.5913 22 16 22H6C4.4087 22 2.88258 21.3679 1.75736 20.2426C0.632141 19.1174 0 17.5913 0 16V6ZM6 2C4.93913 2 3.92172 2.42143 3.17157 3.17157C2.42143 3.92172 2 4.93913 2 6V16C2 17.0609 2.42143 18.0783 3.17157 18.8284C3.92172 19.5786 4.93913 20 6 20H16C17.0609 20 18.0783 19.5786 18.8284 18.8284C19.5786 18.0783 20 17.0609 20 16V9.414L12.586 2H6Z" fill="white"/>
<path fill-rule="evenodd" clip-rule="evenodd" d="M12 4V1H14V4C14 5.06087 14.4214 6.07828 15.1716 6.82843C15.9217 7.57857 16.9391 8 18 8H21V10H18C16.4087 10 14.8826 9.36786 13.7574 8.24264C12.6321 7.11742 12 5.5913 12 4Z" fill="white"/>
</svg>
