<svg width="19" height="12" viewBox="0 0 19 12" fill="none" xmlns="http://www.w3.org/2000/svg">
<path d="M14.8438 2.9C13.1813 2.9 11.875 3.7 11.7562 3.8L13.1813 5.4C13.1813 5.4 14.0125 4.9 14.8438 4.9C16.5062 4.9 16.625 6.1 16.625 6.5C16.15 6.4 15.3187 6.2 14.25 6.4C12.5875 6.7 10.925 8.4 11.7562 10.3C12.5875 12.1 15.4375 12.4 16.625 10.9V11.9H19V6.6C19 3.9 16.7438 2.9 14.8438 2.9ZM13.6562 9.4C13.5375 7.5 15.4375 7.5 16.625 7.6V8.6C16.625 9.8 13.8938 10.9 13.6562 9.4ZM8.19375 12H10.6875L6.8875 0H3.68125L0 12H2.49375L3.68125 8H6.8875L8.19375 12ZM4.275 6L5.225 2.8L6.29375 6H4.275Z" fill="white"/>
</svg>
